<svg width="16" height="16" viewBox="0 0 16 16" fill="none" xmlns="http://www.w3.org/2000/svg">
<path d="M7.99984 2.66675C8.70708 2.66675 9.38536 2.9477 9.88546 3.4478C10.3856 3.94789 10.6665 4.62617 10.6665 5.33341C10.6665 6.04066 10.3856 6.71894 9.88546 7.21903C9.38536 7.71913 8.70708 8.00008 7.99984 8.00008C7.29259 8.00008 6.61432 7.71913 6.11422 7.21903C5.61412 6.71894 5.33317 6.04066 5.33317 5.33341C5.33317 4.62617 5.61412 3.94789 6.11422 3.4478C6.61432 2.9477 7.29259 2.66675 7.99984 2.66675ZM7.99984 9.33341C10.9465 9.33341 13.3332 10.5267 13.3332 12.0001V13.3334H2.6665V12.0001C2.6665 10.5267 5.05317 9.33341 7.99984 9.33341Z" fill="white"/>
</svg>
