<svg width="12" height="13" viewBox="0 0 12 13" fill="none" xmlns="http://www.w3.org/2000/svg">
<path d="M5.5 5H6.5V4H5.5M6 10.5C3.795 10.5 2 8.705 2 6.5C2 4.295 3.795 2.5 6 2.5C8.205 2.5 10 4.295 10 6.5C10 8.705 8.205 10.5 6 10.5ZM6 1.5C5.34339 1.5 4.69321 1.62933 4.08658 1.8806C3.47995 2.13188 2.92876 2.50017 2.46447 2.96447C1.52678 3.90215 1 5.17392 1 6.5C1 7.82608 1.52678 9.09785 2.46447 10.0355C2.92876 10.4998 3.47995 10.8681 4.08658 11.1194C4.69321 11.3707 5.34339 11.5 6 11.5C7.32608 11.5 8.59785 10.9732 9.53553 10.0355C10.4732 9.09785 11 7.82608 11 6.5C11 5.84339 10.8707 5.19321 10.6194 4.58658C10.3681 3.97995 9.99983 3.42876 9.53553 2.96447C9.07124 2.50017 8.52005 2.13188 7.91342 1.8806C7.30679 1.62933 6.65661 1.5 6 1.5ZM5.5 9H6.5V6H5.5V9Z" fill="white"/>
</svg>
