<svg width="20" height="18" viewBox="0 0 20 18" fill="none" xmlns="http://www.w3.org/2000/svg">
<path d="M17.3668 1.63501L14.0919 2.22001L16.3752 4.87501L18.0168 4.57501L17.3668 1.63501ZM11.6419 2.65501L10.0002 2.94751L12.2919 5.59501L13.9252 5.30251L11.6419 2.65501ZM7.55852 3.37501L5.91685 3.68251L8.20852 6.33001L9.84185 6.03751L7.55852 3.37501ZM3.46685 4.12501L2.65019 4.26751C2.21717 4.34537 1.83619 4.57471 1.59089 4.90516C1.34559 5.23562 1.25602 5.64017 1.34186 6.03001L1.66686 7.50001L5.75019 6.77251L3.46685 4.12501ZM1.66686 7.50001V15C1.66686 15.8325 2.41685 16.5 3.33352 16.5H16.6668C17.5918 16.5 18.3335 15.8325 18.3335 15V7.50001H1.66686Z" fill="white"/>
</svg>
