<svg width="104" height="44" viewBox="0 0 104 44" fill="none" xmlns="http://www.w3.org/2000/svg">
<path d="M25.6553 11.3616L20.8172 12.2066L24.1904 16.0416L26.6155 15.6082L25.6553 11.3616ZM17.1979 12.8349L14.7727 13.2574L18.1582 17.0816L20.571 16.6591L17.1979 12.8349ZM11.1657 13.8749L8.74055 14.3191L12.126 18.1432L14.5388 17.7207L11.1657 13.8749ZM5.12123 14.9582L3.91479 15.1641C3.27511 15.2765 2.7123 15.6078 2.34992 16.0851C1.98755 16.5624 1.85523 17.1468 1.98203 17.7099L2.46214 19.8332L8.49434 18.7824L5.12123 14.9582ZM2.46214 19.8332V30.6666C2.46214 31.8691 3.5701 32.8332 4.92426 32.8332H24.6212C25.9877 32.8332 27.0833 31.8691 27.0833 30.6666V19.8332H2.46214Z" fill="white"/>
<path d="M40.7223 15.804C40.4236 15.868 40.189 15.9853 40.0183 16.156C39.9756 16.1987 39.933 16.2733 39.8903 16.38C39.869 16.4653 39.8476 16.5293 39.8263 16.572C39.7836 16.636 39.741 17.0093 39.6983 17.692C39.677 18.3747 39.6556 19.1853 39.6343 20.124C39.613 21.0627 39.6023 22.044 39.6023 23.068C39.6023 24.0707 39.6343 24.9453 39.6983 25.692C39.7623 26.3107 39.9223 26.9187 40.1783 27.516C40.4556 28.092 40.9036 28.4653 41.5223 28.636C41.9916 28.6787 42.429 28.6147 42.8343 28.444C43.261 28.252 43.581 27.9427 43.7943 27.516C44.029 27.0253 44.125 26.5133 44.0823 25.98C44.061 25.4253 44.1036 24.8813 44.2103 24.348C44.509 24.3907 44.8396 24.4013 45.2023 24.38C45.5863 24.3587 45.9703 24.348 46.3543 24.348C46.7383 24.348 47.1116 24.3587 47.4743 24.38C47.8583 24.4013 48.1996 24.4547 48.4983 24.54C48.861 25.6493 48.957 26.7587 48.7863 27.868C48.6156 28.956 48.2423 29.9373 47.6663 30.812C47.0903 31.6867 46.333 32.412 45.3943 32.988C44.477 33.5427 43.4316 33.8307 42.2583 33.852C41.4903 33.9587 40.701 33.9587 39.8903 33.852C39.0796 33.7667 38.3223 33.564 37.6183 33.244C36.9143 32.9027 36.317 32.4333 35.8263 31.836C35.357 31.2387 35.0796 30.492 34.9943 29.596C34.9516 28.828 34.9196 28.028 34.8983 27.196C34.877 26.364 34.8556 25.436 34.8343 24.412C34.8343 23.3667 34.8343 22.1933 34.8343 20.892C34.8556 19.5693 34.877 18.044 34.8983 16.316C34.8556 15.9533 34.8663 15.5907 34.9303 15.228C35.0156 14.844 35.1223 14.492 35.2503 14.172C35.4423 13.6173 35.677 13.1053 35.9543 12.636C36.253 12.1667 36.605 11.7507 37.0103 11.388C37.245 11.2173 37.501 11.0787 37.7783 10.972C38.0556 10.844 38.3436 10.7373 38.6423 10.652C39.6236 10.332 40.5943 10.204 41.5543 10.268C42.5143 10.332 43.4103 10.556 44.2423 10.94C45.0956 11.3027 45.8636 11.7933 46.5463 12.412C47.229 13.0307 47.773 13.7453 48.1783 14.556C48.5836 15.3453 48.829 16.2093 48.9143 17.148C48.9996 18.0867 48.8716 19.0467 48.5303 20.028C47.741 20.1987 46.9623 20.2627 46.1943 20.22C45.4476 20.156 44.669 20.0493 43.8583 19.9C43.7943 19.4947 43.7516 19.036 43.7303 18.524C43.7303 18.012 43.677 17.5427 43.5703 17.116C43.4636 16.668 43.261 16.3053 42.9623 16.028C42.685 15.7507 42.237 15.6227 41.6183 15.644C41.341 15.6867 41.0423 15.74 40.7223 15.804ZM62.5233 10.876C62.9286 10.876 63.2913 10.8867 63.6113 10.908L64.4753 33.308C64.1126 33.372 63.718 33.4147 63.2913 33.436C62.886 33.4573 62.4806 33.468 62.0753 33.468C61.6913 33.468 61.3073 33.468 60.9233 33.468C60.5606 33.468 60.2513 33.4787 59.9953 33.5H59.9633C59.8566 32.796 59.782 32.0707 59.7393 31.324C59.718 30.556 59.6966 29.7987 59.6753 29.052C59.6753 28.3053 59.6646 27.5587 59.6433 26.812C59.622 26.0653 59.5686 25.3507 59.4833 24.668L59.4513 24.636C58.8326 24.5293 58.214 24.476 57.5953 24.476C56.9766 24.476 56.358 24.5507 55.7393 24.7C55.6753 25.4467 55.6433 26.1827 55.6433 26.908C55.6646 27.6333 55.686 28.3587 55.7073 29.084C55.7286 29.8093 55.7286 30.524 55.7073 31.228C55.7073 31.9107 55.654 32.5933 55.5473 33.276C55.2913 33.4253 54.95 33.5 54.5233 33.5C54.0966 33.5 53.67 33.4787 53.2433 33.436C52.8166 33.3933 52.4113 33.3613 52.0273 33.34C51.6646 33.3187 51.3873 33.3613 51.1953 33.468C51.1526 32.8707 51.0993 32.06 51.0353 31.036C50.9926 29.9907 50.95 28.828 50.9073 27.548C50.8646 26.2467 50.822 24.8707 50.7793 23.42C50.758 21.9693 50.7366 20.5187 50.7153 19.068C50.694 17.596 50.6833 16.188 50.6833 14.844C50.7046 13.4787 50.726 12.252 50.7473 11.164V11.132H50.7793H50.8433C51.1633 11.196 51.494 11.2173 51.8353 11.196C52.198 11.1747 52.55 11.1533 52.8913 11.132C53.254 11.1107 53.606 11.1 53.9473 11.1C54.2886 11.1 54.6086 11.1427 54.9073 11.228C55.0993 12.7 55.1953 14.1293 55.1953 15.516C55.1953 16.9027 55.3233 18.2787 55.5793 19.644H55.6113C56.1446 19.772 56.7206 19.8147 57.3393 19.772C57.958 19.708 58.534 19.6547 59.0673 19.612H59.0993C59.2273 18.14 59.2913 16.764 59.2913 15.484C59.3126 14.204 59.2913 12.796 59.2273 11.26C59.4833 11.1747 59.7926 11.1 60.1553 11.036C60.5393 10.972 60.934 10.9293 61.3393 10.908C61.7446 10.8653 62.1393 10.8547 62.5233 10.876ZM69.564 11.004C70.076 11.0253 70.812 11.0253 71.772 11.004H72.54V11.132C72.54 12.9667 72.508 14.812 72.444 16.668C72.4014 18.524 72.3587 20.3907 72.316 22.268C72.2947 24.124 72.2947 25.98 72.316 27.836C72.3374 29.692 72.4014 31.5267 72.508 33.34C72.3374 33.5107 71.9747 33.6067 71.42 33.628C70.8867 33.6707 70.3 33.6813 69.66 33.66C69.0414 33.6387 68.444 33.6067 67.868 33.564C67.292 33.5427 66.8974 33.564 66.684 33.628C66.8334 31.708 66.8974 29.7773 66.876 27.836C66.8547 25.8947 66.812 23.9747 66.748 22.076C66.7054 20.156 66.6734 18.268 66.652 16.412C66.652 14.5347 66.748 12.7 66.94 10.908V10.844C67.0467 10.8227 67.2494 10.8333 67.548 10.876C67.868 10.8973 68.1027 10.908 68.252 10.908C68.636 10.9293 69.0734 10.9613 69.564 11.004ZM88.3405 30.012C88.3405 30.2253 88.3512 30.4173 88.3725 30.588C88.4152 31.356 88.4365 31.9427 88.4365 32.348C88.4365 32.732 88.4045 33.02 88.3405 33.212C88.2979 33.3827 88.2125 33.4787 88.0845 33.5C87.9565 33.5 87.7752 33.5 87.5405 33.5C87.3059 33.4787 86.9965 33.4787 86.6125 33.5C86.2499 33.5213 85.6205 33.5427 84.7245 33.564C83.8499 33.5853 82.6339 33.596 81.0765 33.596C79.5405 33.596 77.4819 33.5747 74.9005 33.532V32.956C74.9645 31.356 75.0179 29.916 75.0605 28.636C75.1032 27.3347 75.1245 26.1293 75.1245 25.02C75.1459 23.8893 75.1565 22.8013 75.1565 21.756C75.1565 20.7107 75.1459 19.644 75.1245 18.556C75.1032 17.468 75.0819 16.316 75.0605 15.1C75.0392 13.8627 75.0179 12.4973 74.9965 11.004C75.2099 10.9187 75.5405 10.8547 75.9885 10.812C76.4365 10.748 76.9165 10.716 77.4285 10.716C77.9405 10.716 78.4419 10.748 78.9325 10.812C79.4232 10.876 79.8179 10.972 80.1165 11.1C80.0739 12.4867 80.0525 13.916 80.0525 15.388C80.0739 16.8387 80.0952 18.3 80.1165 19.772C80.1379 21.244 80.1485 22.716 80.1485 24.188C80.1699 25.6387 80.1699 27.0467 80.1485 28.412V28.444C80.2979 28.4013 80.5752 28.3907 80.9805 28.412C81.4072 28.412 81.8979 28.4227 82.4525 28.444C83.0072 28.4653 83.5939 28.4973 84.2125 28.54C84.8525 28.5613 85.4499 28.5827 86.0045 28.604C86.5805 28.6253 87.0819 28.6467 87.5085 28.668C87.9565 28.668 88.2659 28.6573 88.4365 28.636C88.4365 28.8707 88.4259 29.1053 88.4045 29.34C88.3832 29.5533 88.3619 29.7773 88.3405 30.012ZM103.091 30.012C103.091 30.2253 103.101 30.4173 103.123 30.588C103.165 31.356 103.187 31.9427 103.187 32.348C103.187 32.732 103.155 33.02 103.091 33.212C103.048 33.3827 102.963 33.4787 102.835 33.5C102.707 33.5 102.525 33.5 102.291 33.5C102.056 33.4787 101.747 33.4787 101.363 33.5C101 33.5213 100.371 33.5427 99.4745 33.564C98.5999 33.5853 97.3839 33.596 95.8265 33.596C94.2905 33.596 92.2319 33.5747 89.6505 33.532V32.956C89.7145 31.356 89.7679 29.916 89.8105 28.636C89.8532 27.3347 89.8745 26.1293 89.8745 25.02C89.8959 23.8893 89.9065 22.8013 89.9065 21.756C89.9065 20.7107 89.8959 19.644 89.8745 18.556C89.8532 17.468 89.8319 16.316 89.8105 15.1C89.7892 13.8627 89.7679 12.4973 89.7465 11.004C89.9599 10.9187 90.2905 10.8547 90.7385 10.812C91.1865 10.748 91.6665 10.716 92.1785 10.716C92.6905 10.716 93.1919 10.748 93.6825 10.812C94.1732 10.876 94.5679 10.972 94.8665 11.1C94.8239 12.4867 94.8025 13.916 94.8025 15.388C94.8239 16.8387 94.8452 18.3 94.8665 19.772C94.8879 21.244 94.8985 22.716 94.8985 24.188C94.9199 25.6387 94.9199 27.0467 94.8985 28.412V28.444C95.0479 28.4013 95.3252 28.3907 95.7305 28.412C96.1572 28.412 96.6479 28.4227 97.2025 28.444C97.7572 28.4653 98.3439 28.4973 98.9625 28.54C99.6025 28.5613 100.2 28.5827 100.755 28.604C101.331 28.6253 101.832 28.6467 102.259 28.668C102.707 28.668 103.016 28.6573 103.187 28.636C103.187 28.8707 103.176 29.1053 103.155 29.34C103.133 29.5533 103.112 29.7773 103.091 30.012Z" fill="white"/>
</svg>
